<svg xmlns="http://www.w3.org/2000/svg" viewBox="0 0 152 152"><defs><style>.cls-1{fill:#1065cc;}.cls-2{fill:#848e96;}</style></defs><title>solution_pr-media</title><g id="PR_Media" data-name="PR &amp; Media"><path class="cls-1" d="M47,55a4,4,0,0,1-.912-7.895l17-4a4,4,0,1,1,1.832,7.788l-17,4A4.037,4.037,0,0,1,47,55Z"/><path class="cls-1" d="M52,74a4,4,0,0,1-.912-7.9l17-4a4,4,0,1,1,1.832,7.788l-17,4A4.037,4.037,0,0,1,52,74Z"/><path class="cls-1" d="M58,94a4,4,0,0,1-.951-7.886l57-14a4,4,0,0,1,1.908,7.77l-57,14A4.046,4.046,0,0,1,58,94Z"/><path class="cls-1" d="M63,114a4,4,0,0,1-.951-7.886l57-14a4,4,0,0,1,1.908,7.77l-57,14A4.046,4.046,0,0,1,63,114Z"/><path class="cls-1" d="M88.505,66.962a5.023,5.023,0,0,1-4.852-3.752l-5.39-20.9a5,5,0,0,1,3.491-6.063l.155-.041,20.4-5.023a5.018,5.018,0,0,1,6.037,3.607l5.39,20.9a5,5,0,0,1-3.491,6.063l-.142.038L89.69,66.817A4.977,4.977,0,0,1,88.505,66.962ZM86.767,43.249,90.659,58.34l14.574-3.589L101.341,39.66Z"/><path class="cls-2" d="M36,151.792A15.114,15.114,0,0,1,21.37,140.376L5.2,75.264l13.652-4.1,2.3,7.664-6.348,1.9,14.333,57.712a7.072,7.072,0,0,0,8.449,5.158c.212-.049.419-.109.621-.177l-.007-.03.239-.054a6.7,6.7,0,0,0,4.129-7.789l-.033-.133L17.271,36.951A9.012,9.012,0,0,1,23.753,26l.128-.032L111.049,5.247a9.037,9.037,0,0,1,10.8,6.538l24.233,95.293a19.022,19.022,0,0,1-13.732,23.1c-.159.041-.315.078-.472.114L40.654,151.045q-.6.2-1.237.349A14.936,14.936,0,0,1,36,151.792ZM113.127,13a1.008,1.008,0,0,0-.229.027L25.758,33.741a.992.992,0,0,0-.629.464.976.976,0,0,0-.108.757L50.348,133.7a14.672,14.672,0,0,1-.046,6.944l80.082-18.225a11.012,11.012,0,0,0,7.948-13.372L114.1,13.756A1.006,1.006,0,0,0,113.127,13Z"/></g></svg>