<svg xmlns="http://www.w3.org/2000/svg" viewBox="0 0 152 152"><defs><style>.cls-1{fill:#848e96;}.cls-2{fill:#72c037;}</style></defs><title>solution_website-mobile</title><g id="Website_Mobile" data-name="Website &amp; Mobile"><path class="cls-1" d="M60,26H27a9.01,9.01,0,0,0-9,9V58a9.01,9.01,0,0,0,9,9H60a9.01,9.01,0,0,0,9-9V35A9.01,9.01,0,0,0,60,26ZM46.25,32a2.5,2.5,0,1,1-2.5,2.5A2.5,2.5,0,0,1,46.25,32Zm-9,0a2.5,2.5,0,1,1-2.5,2.5A2.5,2.5,0,0,1,37.25,32Zm-9,0a2.5,2.5,0,1,1-2.5,2.5A2.5,2.5,0,0,1,28.25,32ZM61,58a1,1,0,0,1-1,1H27a1,1,0,0,1-1-1V42H61Z"/><path class="cls-1" d="M87,122H77.793L74.981,98H93V90H14a6.006,6.006,0,0,1-6-6V22a6.006,6.006,0,0,1,6-6h98a6.006,6.006,0,0,1,6,6V60h8V22A14.015,14.015,0,0,0,112,8H13.75a14.015,14.015,0,0,0-14,14V84a14.015,14.015,0,0,0,14,14H52.519l-2.812,24H40a4,4,0,0,0,0,8H87a4,4,0,0,0,0-8Zm-29.227,0,2.776-24h6.4l2.776,24Z"/><path class="cls-2" d="M138,144H115a14.015,14.015,0,0,1-14-14V82a14.015,14.015,0,0,1,14-14h23a14.015,14.015,0,0,1,14,14v48A14.015,14.015,0,0,1,138,144ZM115,76a6.006,6.006,0,0,0-6,6v48a6.006,6.006,0,0,0,6,6h23a6.006,6.006,0,0,0,6-6V82a6.006,6.006,0,0,0-6-6Z"/><circle class="cls-1" cx="126.5" cy="125" r="5"/></g></svg>