<svg id="Commerce" xmlns="http://www.w3.org/2000/svg" viewBox="0 0 152 152"><defs><style>.cls-1{fill:#848e96;}.cls-2{fill:#fff;}.cls-3{fill:#f49415;}</style></defs><title>solution_commerce</title><path class="cls-1" d="M124.4,52l2.047-8H112V34h-7V44H86V34H79V44H60V34H53V44H38.525L39.9,52H53v9H41.456l1.38,8H53v8h7V69H79v8h7V69h34.047l2.046-8H112V52ZM79,61H60V52H79Zm26,0H86V52h19Z"/><circle class="cls-1" cx="49.5" cy="133.5" r="10.5"/><path class="cls-1" d="M97,110H45.383L41.848,89H97V81H40.5L31.917,30H134.855L122.774,77.522l6.955,5.111,14.148-55.648A4,4,0,0,0,140,22H30.571l-1.627-9.664A4,4,0,0,0,25,9H4a4,4,0,0,0,0,8H21.617l16.439,97.664A4,4,0,0,0,42,118H97Z"/><path id="Path-2" class="cls-2" d="M109,83v50.189a1,1,0,0,0,1.524.852L122,126.979h0l11.929,19.27a2,2,0,0,0,2.753.648l.029-.018,10.578-6.8a2,2,0,0,0,.6-2.764l-.018-.028L135,117.979h0l10.834-7.223a1,1,0,0,0,.278-1.387,1.011,1.011,0,0,0-.226-.24L110.607,82.205A1,1,0,0,0,109,83Z"/><path class="cls-3" d="M135.642,151.2a6.021,6.021,0,0,1-5.115-2.845L120.7,132.477l-8.078,4.97A5,5,0,0,1,105,133.189V83a5.027,5.027,0,0,1,1.026-3.035,5,5,0,0,1,7.008-.939l35.279,26.923a5,5,0,0,1-.26,8.135l-7.506,5,10.71,16.066a6.008,6.008,0,0,1-1.805,8.289L138.787,150.3A5.964,5.964,0,0,1,135.642,151.2ZM123.3,121.48l12.959,20.934,7.156-4.6-13.963-20.944,10.665-7.11L113,89.063V127.82Z"/></svg>