<svg xmlns="http://www.w3.org/2000/svg" xmlns:xlink="http://www.w3.org/1999/xlink" viewBox="0 0 152 152"><defs><style>.cls-1{fill:#fff;}.cls-2{fill:#848e96;}.cls-3{fill:#1097cb;}.cls-4{mask:url(#mask);}</style><mask id="mask" x="-0.5" y="0" width="152" height="152" maskUnits="userSpaceOnUse"><g id="mask-2"><rect id="path-1" class="cls-1" x="-0.5" width="152" height="152"/></g></mask></defs><title>solution_marketing-automation</title><g id="Marketing_Automation" data-name="Marketing Automation"><path class="cls-2" d="M77.875,119H27.916A47.961,47.961,0,0,1,102.9,81.365a41.579,41.579,0,0,1,9.484-2.774A55.954,55.954,0,0,0,19.875,121v6h58.8A40.647,40.647,0,0,1,77.875,119Z"/><path class="cls-3" d="M149.4,113.127h-4.567a25.345,25.345,0,0,0-2.965-7.584l4.105-4.105a2,2,0,0,0,0-2.828l-6.184-6.184a2,2,0,0,0-2.828,0l-4.105,4.1a25.334,25.334,0,0,0-6.946-2.82V89a2,2,0,0,0-2-2h-8.745a2,2,0,0,0-2,2v4.9a25.367,25.367,0,0,0-6.9,3.051l-3.972-3.973a2,2,0,0,0-2.829,0L93.278,99.16a2,2,0,0,0,0,2.829l4.255,4.255a25.316,25.316,0,0,0-2.566,6.884H88.4a2,2,0,0,0-2,2v8.746a2,2,0,0,0,2,2h7.082a25.372,25.372,0,0,0,2.45,5.583l-5.105,5.105a2,2,0,0,0,0,2.828l6.184,6.184a2,2,0,0,0,2.828,0l5.105-5.105a25.348,25.348,0,0,0,6.22,2.633V150a2,2,0,0,0,2,2h8.745a2,2,0,0,0,2-2v-6.712a25.369,25.369,0,0,0,6.246-2.421l4.255,4.255a2,2,0,0,0,2.829,0l6.183-6.184a2,2,0,0,0,0-2.828l-3.973-3.972a25.355,25.355,0,0,0,2.868-6.265H149.4a2,2,0,0,0,2-2v-8.746A2,2,0,0,0,149.4,113.127ZM120.375,135a16.5,16.5,0,1,1,16.5-16.5A16.5,16.5,0,0,1,120.375,135Z"/><g class="cls-4"><path class="cls-2" d="M76,65a32.5,32.5,0,1,1,32.5-32.5A32.538,32.538,0,0,1,76,65ZM76,8a24.5,24.5,0,1,0,24.5,24.5A24.528,24.528,0,0,0,76,8Z"/></g></g></svg>