<svg xmlns="http://www.w3.org/2000/svg" viewBox="0 0 152 152"><defs><style>.cls-1{fill:#848e96;}.cls-2{fill:#ea4f3d;}</style></defs><title>solution_email-marketing</title><g id="Email_Marketing" data-name="Email Marketing"><path class="cls-1" d="M65.932,18l9.153-8.664c.178-.169.433-.411.7-.653.264.24.52.48.7.648L85.761,18H97.477L82.055,3.488C77.1-1.173,74.4-1.166,69.472,3.53L54.3,18Z"/><path class="cls-1" d="M150.734,68.115,136,54.25V64.935l8,7.474v64.758a6.06,6.06,0,0,1-6.09,6.016H14.09A6.06,6.06,0,0,1,8,137.167V72.839l8-7.573V54.515L1.246,68.582A4.017,4.017,0,0,0,0,71.487V137.9A14.162,14.162,0,0,0,14.187,152H137.813A14.162,14.162,0,0,0,152,137.9V71.038A4.014,4.014,0,0,0,150.734,68.115Z"/><path class="cls-2" d="M105,58H47a4,4,0,0,1,0-8h58a4,4,0,0,1,0,8Z"/><path class="cls-2" d="M96,77H56a4,4,0,0,1,0-8H96a4,4,0,0,1,0,8Z"/><path class="cls-2" d="M33,79.451V35h86V79.111l9-4.932V31a3.865,3.865,0,0,0-3.714-4H27.714A3.865,3.865,0,0,0,24,31V74.546Z"/><path class="cls-1" d="M75.708,119.258a9.558,9.558,0,0,1-4.493-1.11L18.141,89.871a3.932,3.932,0,0,1-1.626-5.434,4.213,4.213,0,0,1,5.621-1.572L75.21,111.142a1.073,1.073,0,0,0,1.012-.008l53.586-29.607a4.217,4.217,0,0,1,5.646,1.488,3.929,3.929,0,0,1-1.539,5.458L80.329,118.08A9.569,9.569,0,0,1,75.708,119.258Z"/></g></svg>